<svg width="129" height="22" viewBox="0 0 129 22" fill="none" xmlns="http://www.w3.org/2000/svg">
<path fill-rule="evenodd" clip-rule="evenodd" d="M64.7518 19.7118C63.8173 19.7118 62.9359 19.5521 62.1182 19.2257C61.3005 18.8993 60.589 18.4444 59.9802 17.8611C59.382 17.2778 58.9041 16.5729 58.5607 15.7604C58.2138 14.941 58.0368 14.0382 58.0368 13.0521V13C58.0368 12.0764 58.1961 11.2049 58.5041 10.3993C58.8191 9.5868 59.2616 8.88194 59.8315 8.2743C60.3979 7.66666 61.074 7.18402 61.8456 6.84027C62.6244 6.49305 63.4881 6.31596 64.4261 6.31596C65.4668 6.31596 66.3801 6.50346 67.1695 6.87499C67.9518 7.24652 68.6066 7.75346 69.127 8.38194C69.6508 9.01735 70.0402 9.74652 70.3022 10.5868C70.5641 11.4271 70.6986 12.3055 70.6986 13.2257C70.6986 13.3542 70.6915 13.4896 70.688 13.6285C70.6809 13.7708 70.6668 13.9097 70.6491 14.0521H61.028C61.1908 15.1076 61.6262 15.9097 62.3129 16.4757C62.9996 17.0312 63.8244 17.316 64.8049 17.316C65.5518 17.316 66.1996 17.1875 66.7376 16.9236C67.2863 16.6667 67.8208 16.2847 68.3482 15.7847L70.111 17.316C69.4845 18.0451 68.734 18.6285 67.8703 19.066C66.996 19.4861 65.9553 19.7118 64.7518 19.7118ZM67.7252 12.0937C67.6756 11.625 67.573 11.184 67.4102 10.7674C67.2473 10.3507 67.0243 9.99999 66.7411 9.69791C66.465 9.39583 66.1252 9.15972 65.7359 8.97916C65.3536 8.7986 64.9075 8.70833 64.412 8.70833C63.481 8.70833 62.72 9.02083 62.1217 9.64235C61.5164 10.2639 61.1483 11.0833 61.0173 12.0903H67.7252V12.0937ZM37.2725 6.57291H40.2955V8.54166C40.5114 8.24652 40.738 7.97222 40.9857 7.70833C41.2335 7.45138 41.5203 7.20833 41.8424 6.99652C42.1609 6.77777 42.522 6.6111 42.9255 6.48958C43.3291 6.36805 43.7751 6.30902 44.2707 6.30902C45.2087 6.30902 46.0087 6.51388 46.6529 6.93055C47.3042 7.34722 47.8034 7.90277 48.1467 8.59027C48.6741 7.90624 49.3042 7.34722 50.0193 6.93055C50.7449 6.51388 51.598 6.30902 52.5927 6.30902C54.0334 6.30902 55.1661 6.73263 55.9767 7.58333C56.7944 8.43402 57.1944 9.64583 57.1944 11.2222V19.4236H54.1749V12.1389C54.1749 11.1215 53.9449 10.3437 53.4847 9.81249C53.0174 9.2743 52.3732 9.01041 51.5307 9.01041C50.7095 9.01041 50.0405 9.28124 49.5201 9.82291C49.0033 10.3611 48.7414 11.1562 48.7414 12.1875V19.4201H45.7184V12.1215C45.7184 11.1215 45.4883 10.3472 45.0246 9.82291C44.5609 9.28472 43.9167 9.02083 43.0742 9.02083C42.2388 9.02083 41.5592 9.30208 41.0495 9.87152C40.5397 10.434 40.2849 11.2222 40.2849 12.2222V19.4306H37.2619L37.2725 6.57291ZM32.3133 1.80555H35.5593V4.60416H32.3133V1.80555ZM32.4372 6.57291H35.4602V19.4167H32.4372V6.57291ZM27.4213 1.65971H30.4443V19.4167H27.4213V1.65971Z" fill="#0E4B29"/>
<path fill-rule="evenodd" clip-rule="evenodd" d="M118.372 12.6319C118.595 9.88194 120.528 7.81249 123.034 7.81249C125.933 7.81249 127.392 10.125 127.572 12.6319H118.372ZM118.372 13.7014H128.857C128.885 13.5104 128.885 13.4305 128.885 13.2674V13.2153C128.885 9.54513 126.627 6.71874 123.08 6.71874C119.664 6.71874 117.084 9.59027 117.084 13.191V13.243C117.084 17.1111 119.958 19.7153 123.275 19.7153C125.707 19.7153 127.222 18.743 128.503 17.3819L127.664 16.6528C126.623 17.75 125.285 18.6007 123.328 18.6007C120.854 18.5903 118.595 16.7917 118.372 13.7014ZM116.309 19.4167V11.9028C116.309 8.78819 114.447 6.71874 111.456 6.71874C109.077 6.71874 107.71 8.00694 106.889 9.39583C106.199 7.9618 104.833 6.71874 102.624 6.71874C100.365 6.71874 99.2292 7.93749 98.4079 9.22569V7.01041H97.2009V19.4167H98.415V12.2674C98.415 9.76041 100.199 7.81596 102.457 7.81596C104.716 7.81596 106.153 9.3993 106.153 11.9722V19.4167H107.367V12.191C107.367 9.41666 109.229 7.81596 111.36 7.81596C113.689 7.81596 115.098 9.37152 115.098 12.0521V19.4167H116.309ZM94.9673 13.2604C94.9673 16.1805 92.8115 18.5903 89.8098 18.5903C86.886 18.5903 84.6063 16.2083 84.6063 13.2153V13.1632C84.6063 10.243 86.7621 7.83333 89.7638 7.83333C92.6877 7.83333 94.9673 10.2153 94.9673 13.2083V13.2604ZM96.277 13.2153V13.1632C96.277 9.68402 93.5514 6.71874 89.8063 6.71874C86.04 6.71874 83.2825 9.7361 83.2825 13.2153V13.2674C83.2825 16.7465 86.0152 19.7118 89.7567 19.7118C93.5301 19.7118 96.277 16.6944 96.277 13.2153ZM82.617 19.4167V11.8264C82.617 8.8611 80.7551 6.71874 77.5551 6.71874C75.2543 6.71874 73.8313 7.85763 72.9959 9.31944V1.65971H71.7782V19.4167H72.9959V12.243C72.9959 9.66666 74.9003 7.81596 77.3817 7.81596C79.9338 7.81596 81.3993 9.49305 81.3993 12.0521V19.4167H82.617Z" fill="#6E6D6E"/>
<path fill-rule="evenodd" clip-rule="evenodd" d="M0.0976562 12.6458H8.68869V21.0764H0.0976562V12.6458ZM0.0976562 0H8.68869V8.43055H0.0976562V0ZM12.2426 12.6458H20.8337V21.0764H12.2426V12.6458Z" fill="#6E6D6E"/>
<path fill-rule="evenodd" clip-rule="evenodd" d="M12.2427 7.68056C13.8497 5.27778 16.2533 3.42014 19.124 2.47917C16.5895 3.86111 14.5542 5.95139 13.2621 8.45486L13.5028 8.43056H16.54C18.9045 8.43056 20.8373 6.53472 20.8373 4.21528V0H16.5364C14.1719 0 12.2392 1.89583 12.2392 4.21528V7.68056H12.2427Z" fill="#0E4B29"/>
</svg>
