<svg width="48" height="48" viewBox="0 0 48 48" fill="none" xmlns="http://www.w3.org/2000/svg">
<circle cx="24" cy="24" r="24" fill="#E8A746"/>
<circle cx="24" cy="24" r="24" fill="#111111"/>
<g clip-path="url(#clip0)">
<path d="M30.5372 23.2958L28.7091 21.4677C28.6955 21.4541 28.6848 21.438 28.6775 21.4203C28.6702 21.4026 28.6664 21.3836 28.6665 21.3644V17.8749C28.6665 17.7202 28.605 17.5718 28.4956 17.4624C28.3862 17.353 28.2379 17.2916 28.0832 17.2916H26.3332C26.1784 17.2916 26.0301 17.353 25.9207 17.4624C25.8113 17.5718 25.7498 17.7202 25.7498 17.8749V18.1561C25.7499 18.185 25.7414 18.2132 25.7253 18.2372C25.7093 18.2613 25.6865 18.28 25.6598 18.2911C25.6332 18.3021 25.6038 18.305 25.5755 18.2994C25.5471 18.2937 25.5211 18.2798 25.5007 18.2593L24.1206 16.8792C24.0112 16.7698 23.8628 16.7084 23.7082 16.7084C23.5535 16.7084 23.4051 16.7698 23.2957 16.8792L16.8791 23.2958C16.7975 23.3774 16.742 23.4813 16.7195 23.5945C16.697 23.7076 16.7085 23.8249 16.7527 23.9315C16.7968 24.038 16.8716 24.1291 16.9675 24.1932C17.0634 24.2573 17.1761 24.2916 17.2915 24.2916H18.0207C18.0593 24.2916 18.0964 24.3069 18.1238 24.3343C18.1511 24.3616 18.1665 24.3987 18.1665 24.4374V30.1249C18.1665 30.2796 18.2279 30.428 18.3373 30.5374C18.4467 30.6468 18.5951 30.7082 18.7498 30.7082H22.104C22.1427 30.7082 22.1798 30.6929 22.2071 30.6655C22.2345 30.6382 22.2498 30.6011 22.2498 30.5624V27.7916C22.2498 27.4048 22.4035 27.0339 22.677 26.7604C22.9505 26.4869 23.3214 26.3332 23.7082 26.3332C24.0949 26.3332 24.4659 26.4869 24.7394 26.7604C25.0128 27.0339 25.1665 27.4048 25.1665 27.7916V30.5624C25.1665 30.6011 25.1819 30.6382 25.2092 30.6655C25.2366 30.6929 25.2736 30.7082 25.3123 30.7082H28.6665C28.8212 30.7082 28.9696 30.6468 29.079 30.5374C29.1884 30.428 29.2498 30.2796 29.2498 30.1249V24.4374C29.2498 24.3987 29.2652 24.3616 29.2925 24.3343C29.3199 24.3069 29.357 24.2916 29.3957 24.2916H30.1248C30.2402 24.2916 30.3529 24.2573 30.4488 24.1932C30.5447 24.1291 30.6195 24.038 30.6636 23.9315C30.7078 23.8249 30.7193 23.7076 30.6968 23.5945C30.6743 23.4813 30.6188 23.3774 30.5372 23.2958Z" fill="white"/>
</g>
<defs>
<clipPath id="clip0">
<rect x="17" y="17" width="14" height="14" fill="white"/>
</clipPath>
</defs>
</svg>
